<svg xmlns="http://www.w3.org/2000/svg" width="800" height="800" viewBox="0 0 800 800" role="img" aria-label="casio-g-shock-ga2100 mockup">
<defs>
  <radialGradient id="dialgrad" cx="0.42" cy="0.38" r="0.9">
    <stop offset="0" stop-color="#ffffff" stop-opacity="0.16"/>
    <stop offset="1" stop-color="#000000" stop-opacity="0.18"/>
  </radialGradient>
  <linearGradient id="metal" x1="0" y1="0" x2="1" y2="0">
    <stop offset="0" stop-color="#B9BFC9"/><stop offset="0.5" stop-color="#858C99"/><stop offset="1" stop-color="#C7CCD4"/>
  </linearGradient>
  <linearGradient id="sat" x1="0" y1="0" x2="1" y2="0">
    <stop offset="0" stop-color="#D8C79B"/><stop offset="0.5" stop-color="#BFAA79"/><stop offset="1" stop-color="#E0D0A6"/>
  </linearGradient>
</defs>

    <rect width="800" height="800" fill="url(#bg)"/>
    <linearGradient id="bg" x1="0" y1="0" x2="1" y2="1"><stop offset="0" stop-color="#F2EADC"/><stop offset="1" stop-color="#E5D9C2"/></linearGradient>
    <circle cx="400" cy="330" r="300" fill="rgba(198,161,91,0.22)"/>
    <g transform="rotate(8 400 400)">
    <g>
      
    <defs>
      <linearGradient id="straptop" x1="0" y1="0" x2="1" y2="0">
        <stop offset="0" stop-color="#232326"/><stop offset="0.5" stop-color="#17171A"/><stop offset="1" stop-color="#2E2E32"/>
      </linearGradient>
    </defs>
    <rect x="331" y="200" width="138" height="48" rx="57.5" fill="url(#straptop)"/>
    
    <rect x="326" y="200" width="148" height="48" rx="57.5" fill="none" stroke="rgba(17,17,17,0.18)" stroke-width="2"/>
    <line x1="347" y1="213.44" x2="453" y2="213.44" stroke="rgba(17,17,17,0.14)" stroke-width="1.4"/><line x1="347" y1="224" x2="453" y2="224" stroke="rgba(17,17,17,0.14)" stroke-width="1.4"/><line x1="347" y1="234.56" x2="453" y2="234.56" stroke="rgba(17,17,17,0.14)" stroke-width="1.4"/>
  
      
    <defs>
      <linearGradient id="strapbot" x1="0" y1="0" x2="1" y2="0">
        <stop offset="0" stop-color="#232326"/><stop offset="0.5" stop-color="#17171A"/><stop offset="1" stop-color="#2E2E32"/>
      </linearGradient>
    </defs>
    <rect x="331" y="528" width="138" height="48" rx="57.5" fill="url(#strapbot)"/>
    
    <rect x="326" y="528" width="148" height="48" rx="57.5" fill="none" stroke="rgba(17,17,17,0.16)" stroke-width="2"/>
    <line x1="347" y1="541.44" x2="453" y2="541.44" stroke="rgba(17,17,17,0.14)" stroke-width="1.4"/><line x1="347" y1="552" x2="453" y2="552" stroke="rgba(17,17,17,0.14)" stroke-width="1.4"/><line x1="347" y1="562.56" x2="453" y2="562.56" stroke="rgba(17,17,17,0.14)" stroke-width="1.4"/>
  
      <polygon points="400.0,228.0 513.1,274.9 560.0,388.0 513.1,501.1 400.0,548.0 286.9,501.1 240.0,388.0 286.9,274.9" fill="#20232A"/>
      <polygon points="400.0,228.0 513.1,274.9 560.0,388.0 513.1,501.1 400.0,548.0 286.9,501.1 240.0,388.0 286.9,274.9" fill="none" stroke="rgba(244,244,242,0.12)" stroke-width="2"/>
      <circle cx="458.93324858422386" cy="245.72255199326185" r="5" fill="rgba(244,244,242,0.15)"/><circle cx="542.2774480067382" cy="446.9332485842238" r="5" fill="rgba(244,244,242,0.15)"/><circle cx="341.0667514157762" cy="530.2774480067382" r="5" fill="rgba(244,244,242,0.15)"/><circle cx="257.72255199326185" cy="329.06675141577614" r="5" fill="rgba(244,244,242,0.15)"/>
      <g>
        <rect x="308" y="254" width="184" height="268" rx="22" fill="#20232A"/>
        <rect x="318" y="266" width="164" height="244" rx="14" fill="#0A1A14"/>
        <text x="400" y="380" text-anchor="middle" font-family="'Courier New', monospace" font-size="40" font-weight="700" fill="#B7D9B0">10:08</text>
        <line x1="342" y1="404" x2="458" y2="404" stroke="rgba(192,38,29,0.9)" stroke-width="2"/>
        <text x="400" y="430" text-anchor="middle" font-family="'Courier New', monospace" font-size="13" letter-spacing="2" fill="rgba(183,217,176,0.9)">GA-2100</text>
      </g>
    </g>
  </g><g transform="rotate(-8 400 400)"><rect x="360" y="640" width="80" height="6" rx="3" fill="rgba(17,17,17,0.08)"/></g>
    <ellipse cx="400" cy="720" rx="150" ry="16" fill="rgba(17,17,17,0.14)"/>
  
</svg>