<svg xmlns="http://www.w3.org/2000/svg" width="800" height="800" viewBox="0 0 800 800" role="img" aria-label="fossil-grant-chrono mockup">
<defs>
  <radialGradient id="dialgrad" cx="0.42" cy="0.38" r="0.9">
    <stop offset="0" stop-color="#ffffff" stop-opacity="0.16"/>
    <stop offset="1" stop-color="#000000" stop-opacity="0.18"/>
  </radialGradient>
  <linearGradient id="metal" x1="0" y1="0" x2="1" y2="0">
    <stop offset="0" stop-color="#B9BFC9"/><stop offset="0.5" stop-color="#858C99"/><stop offset="1" stop-color="#C7CCD4"/>
  </linearGradient>
  <linearGradient id="sat" x1="0" y1="0" x2="1" y2="0">
    <stop offset="0" stop-color="#D8C79B"/><stop offset="0.5" stop-color="#BFAA79"/><stop offset="1" stop-color="#E0D0A6"/>
  </linearGradient>
</defs>

    <rect width="800" height="800" fill="url(#bg)"/>
    <linearGradient id="bg" x1="0" y1="0" x2="0" y2="1"><stop offset="0" stop-color="#FAF7F0"/><stop offset="1" stop-color="#EFEAE0"/></linearGradient>
    <circle cx="400" cy="330" r="300" fill="rgba(198,161,91,0.12)"/>
    
    <g>
      
    <defs>
      <linearGradient id="straptop" x1="0" y1="0" x2="1" y2="0">
        <stop offset="0" stop-color="#7A4E2D"/><stop offset="0.5" stop-color="#5E3A1F"/><stop offset="1" stop-color="#8C5C37"/>
      </linearGradient>
    </defs>
    <rect x="342" y="201" width="116" height="28" rx="48.333333333333336" fill="url(#straptop)"/>
    
    <rect x="337" y="201" width="126" height="28" rx="48.333333333333336" fill="none" stroke="rgba(17,17,17,0.18)" stroke-width="2"/>
    <line x1="358" y1="208.84" x2="442" y2="208.84" stroke="rgba(17,17,17,0.14)" stroke-width="1.4"/><line x1="358" y1="215" x2="442" y2="215" stroke="rgba(17,17,17,0.14)" stroke-width="1.4"/><line x1="358" y1="221.16" x2="442" y2="221.16" stroke="rgba(17,17,17,0.14)" stroke-width="1.4"/>
  
      
    <defs>
      <linearGradient id="strapbot" x1="0" y1="0" x2="1" y2="0">
        <stop offset="0" stop-color="#7A4E2D"/><stop offset="0.5" stop-color="#5E3A1F"/><stop offset="1" stop-color="#8C5C37"/>
      </linearGradient>
    </defs>
    <rect x="342" y="541" width="116" height="28" rx="48.333333333333336" fill="url(#strapbot)"/>
    
    <rect x="337" y="541" width="126" height="28" rx="48.333333333333336" fill="none" stroke="rgba(17,17,17,0.16)" stroke-width="2"/>
    <line x1="358" y1="548.84" x2="442" y2="548.84" stroke="rgba(17,17,17,0.14)" stroke-width="1.4"/><line x1="358" y1="555" x2="442" y2="555" stroke="rgba(17,17,17,0.14)" stroke-width="1.4"/><line x1="358" y1="561.16" x2="442" y2="561.16" stroke="rgba(17,17,17,0.14)" stroke-width="1.4"/>
  
      <g>
        <circle cx="400" cy="385" r="160" fill="#C9CED6"/>
        <circle cx="400" cy="385" r="160" fill="none" stroke="rgba(17,17,17,0.25)" stroke-width="2"/>
        <circle cx="400" cy="385" r="150" fill="url(#dialgrad)"/>
        <circle cx="400" cy="385" r="148" fill="none" stroke="rgba(17,17,17,0.08)" stroke-width="1"/>
        
        <line x1="400.00" y1="265.00" x2="400.00" y2="244.00" stroke="rgba(17,17,17,0.4)" stroke-width="3.4" stroke-linecap="round"/><line x1="413.17" y1="259.69" x2="414.74" y2="244.77" stroke="rgba(17,17,17,0.4)" stroke-width="1.6" stroke-linecap="round"/><line x1="426.20" y1="261.75" x2="429.32" y2="247.08" stroke="rgba(17,17,17,0.4)" stroke-width="1.6" stroke-linecap="round"/><line x1="438.94" y1="265.17" x2="443.57" y2="250.90" stroke="rgba(17,17,17,0.4)" stroke-width="1.6" stroke-linecap="round"/><line x1="451.25" y1="269.89" x2="457.35" y2="256.19" stroke="rgba(17,17,17,0.4)" stroke-width="1.6" stroke-linecap="round"/><line x1="460.00" y1="281.08" x2="470.50" y2="262.89" stroke="rgba(17,17,17,0.4)" stroke-width="3.4" stroke-linecap="round"/><line x1="474.06" y1="283.06" x2="482.88" y2="270.93" stroke="rgba(17,17,17,0.4)" stroke-width="1.6" stroke-linecap="round"/><line x1="484.31" y1="291.36" x2="494.35" y2="280.22" stroke="rgba(17,17,17,0.4)" stroke-width="1.6" stroke-linecap="round"/><line x1="493.64" y1="300.69" x2="504.78" y2="290.65" stroke="rgba(17,17,17,0.4)" stroke-width="1.6" stroke-linecap="round"/><line x1="501.94" y1="310.94" x2="514.07" y2="302.12" stroke="rgba(17,17,17,0.4)" stroke-width="1.6" stroke-linecap="round"/><line x1="503.92" y1="325.00" x2="522.11" y2="314.50" stroke="rgba(17,17,17,0.4)" stroke-width="3.4" stroke-linecap="round"/><line x1="515.11" y1="333.75" x2="528.81" y2="327.65" stroke="rgba(17,17,17,0.4)" stroke-width="1.6" stroke-linecap="round"/><line x1="519.83" y1="346.06" x2="534.10" y2="341.43" stroke="rgba(17,17,17,0.4)" stroke-width="1.6" stroke-linecap="round"/><line x1="523.25" y1="358.80" x2="537.92" y2="355.68" stroke="rgba(17,17,17,0.4)" stroke-width="1.6" stroke-linecap="round"/><line x1="525.31" y1="371.83" x2="540.23" y2="370.26" stroke="rgba(17,17,17,0.4)" stroke-width="1.6" stroke-linecap="round"/><line x1="520.00" y1="385.00" x2="541.00" y2="385.00" stroke="rgba(17,17,17,0.4)" stroke-width="3.4" stroke-linecap="round"/><line x1="525.31" y1="398.17" x2="540.23" y2="399.74" stroke="rgba(17,17,17,0.4)" stroke-width="1.6" stroke-linecap="round"/><line x1="523.25" y1="411.20" x2="537.92" y2="414.32" stroke="rgba(17,17,17,0.4)" stroke-width="1.6" stroke-linecap="round"/><line x1="519.83" y1="423.94" x2="534.10" y2="428.57" stroke="rgba(17,17,17,0.4)" stroke-width="1.6" stroke-linecap="round"/><line x1="515.11" y1="436.25" x2="528.81" y2="442.35" stroke="rgba(17,17,17,0.4)" stroke-width="1.6" stroke-linecap="round"/><line x1="503.92" y1="445.00" x2="522.11" y2="455.50" stroke="rgba(17,17,17,0.4)" stroke-width="3.4" stroke-linecap="round"/><line x1="501.94" y1="459.06" x2="514.07" y2="467.88" stroke="rgba(17,17,17,0.4)" stroke-width="1.6" stroke-linecap="round"/><line x1="493.64" y1="469.31" x2="504.78" y2="479.35" stroke="rgba(17,17,17,0.4)" stroke-width="1.6" stroke-linecap="round"/><line x1="484.31" y1="478.64" x2="494.35" y2="489.78" stroke="rgba(17,17,17,0.4)" stroke-width="1.6" stroke-linecap="round"/><line x1="474.06" y1="486.94" x2="482.88" y2="499.07" stroke="rgba(17,17,17,0.4)" stroke-width="1.6" stroke-linecap="round"/><line x1="460.00" y1="488.92" x2="470.50" y2="507.11" stroke="rgba(17,17,17,0.4)" stroke-width="3.4" stroke-linecap="round"/><line x1="451.25" y1="500.11" x2="457.35" y2="513.81" stroke="rgba(17,17,17,0.4)" stroke-width="1.6" stroke-linecap="round"/><line x1="438.94" y1="504.83" x2="443.57" y2="519.10" stroke="rgba(17,17,17,0.4)" stroke-width="1.6" stroke-linecap="round"/><line x1="426.20" y1="508.25" x2="429.32" y2="522.92" stroke="rgba(17,17,17,0.4)" stroke-width="1.6" stroke-linecap="round"/><line x1="413.17" y1="510.31" x2="414.74" y2="525.23" stroke="rgba(17,17,17,0.4)" stroke-width="1.6" stroke-linecap="round"/><line x1="400.00" y1="505.00" x2="400.00" y2="526.00" stroke="rgba(17,17,17,0.4)" stroke-width="3.4" stroke-linecap="round"/><line x1="386.83" y1="510.31" x2="385.26" y2="525.23" stroke="rgba(17,17,17,0.4)" stroke-width="1.6" stroke-linecap="round"/><line x1="373.80" y1="508.25" x2="370.68" y2="522.92" stroke="rgba(17,17,17,0.4)" stroke-width="1.6" stroke-linecap="round"/><line x1="361.06" y1="504.83" x2="356.43" y2="519.10" stroke="rgba(17,17,17,0.4)" stroke-width="1.6" stroke-linecap="round"/><line x1="348.75" y1="500.11" x2="342.65" y2="513.81" stroke="rgba(17,17,17,0.4)" stroke-width="1.6" stroke-linecap="round"/><line x1="340.00" y1="488.92" x2="329.50" y2="507.11" stroke="rgba(17,17,17,0.4)" stroke-width="3.4" stroke-linecap="round"/><line x1="325.94" y1="486.94" x2="317.12" y2="499.07" stroke="rgba(17,17,17,0.4)" stroke-width="1.6" stroke-linecap="round"/><line x1="315.69" y1="478.64" x2="305.65" y2="489.78" stroke="rgba(17,17,17,0.4)" stroke-width="1.6" stroke-linecap="round"/><line x1="306.36" y1="469.31" x2="295.22" y2="479.35" stroke="rgba(17,17,17,0.4)" stroke-width="1.6" stroke-linecap="round"/><line x1="298.06" y1="459.06" x2="285.93" y2="467.88" stroke="rgba(17,17,17,0.4)" stroke-width="1.6" stroke-linecap="round"/><line x1="296.08" y1="445.00" x2="277.89" y2="455.50" stroke="rgba(17,17,17,0.4)" stroke-width="3.4" stroke-linecap="round"/><line x1="284.89" y1="436.25" x2="271.19" y2="442.35" stroke="rgba(17,17,17,0.4)" stroke-width="1.6" stroke-linecap="round"/><line x1="280.17" y1="423.94" x2="265.90" y2="428.57" stroke="rgba(17,17,17,0.4)" stroke-width="1.6" stroke-linecap="round"/><line x1="276.75" y1="411.20" x2="262.08" y2="414.32" stroke="rgba(17,17,17,0.4)" stroke-width="1.6" stroke-linecap="round"/><line x1="274.69" y1="398.17" x2="259.77" y2="399.74" stroke="rgba(17,17,17,0.4)" stroke-width="1.6" stroke-linecap="round"/><line x1="280.00" y1="385.00" x2="259.00" y2="385.00" stroke="rgba(17,17,17,0.4)" stroke-width="3.4" stroke-linecap="round"/><line x1="274.69" y1="371.83" x2="259.77" y2="370.26" stroke="rgba(17,17,17,0.4)" stroke-width="1.6" stroke-linecap="round"/><line x1="276.75" y1="358.80" x2="262.08" y2="355.68" stroke="rgba(17,17,17,0.4)" stroke-width="1.6" stroke-linecap="round"/><line x1="280.17" y1="346.06" x2="265.90" y2="341.43" stroke="rgba(17,17,17,0.4)" stroke-width="1.6" stroke-linecap="round"/><line x1="284.89" y1="333.75" x2="271.19" y2="327.65" stroke="rgba(17,17,17,0.4)" stroke-width="1.6" stroke-linecap="round"/><line x1="296.08" y1="325.00" x2="277.89" y2="314.50" stroke="rgba(17,17,17,0.4)" stroke-width="3.4" stroke-linecap="round"/><line x1="298.06" y1="310.94" x2="285.93" y2="302.12" stroke="rgba(17,17,17,0.4)" stroke-width="1.6" stroke-linecap="round"/><line x1="306.36" y1="300.69" x2="295.22" y2="290.65" stroke="rgba(17,17,17,0.4)" stroke-width="1.6" stroke-linecap="round"/><line x1="315.69" y1="291.36" x2="305.65" y2="280.22" stroke="rgba(17,17,17,0.4)" stroke-width="1.6" stroke-linecap="round"/><line x1="325.94" y1="283.06" x2="317.12" y2="270.93" stroke="rgba(17,17,17,0.4)" stroke-width="1.6" stroke-linecap="round"/><line x1="340.00" y1="281.08" x2="329.50" y2="262.89" stroke="rgba(17,17,17,0.4)" stroke-width="3.4" stroke-linecap="round"/><line x1="348.75" y1="269.89" x2="342.65" y2="256.19" stroke="rgba(17,17,17,0.4)" stroke-width="1.6" stroke-linecap="round"/><line x1="361.06" y1="265.17" x2="356.43" y2="250.90" stroke="rgba(17,17,17,0.4)" stroke-width="1.6" stroke-linecap="round"/><line x1="373.80" y1="261.75" x2="370.68" y2="247.08" stroke="rgba(17,17,17,0.4)" stroke-width="1.6" stroke-linecap="round"/><line x1="386.83" y1="259.69" x2="385.26" y2="244.77" stroke="rgba(17,17,17,0.4)" stroke-width="1.6" stroke-linecap="round"/>
        
        
        
          
    <circle cx="462.3538290724796" cy="349" r="30" fill="#EDEDEA" stroke="rgba(17,17,17,0.12)" stroke-width="1"/>
    <line x1="462.35" y1="327.00" x2="462.35" y2="322.00" stroke="rgba(17,17,17,0.4)" stroke-width="3" stroke-linecap="round"/><line x1="465.80" y1="327.27" x2="466.58" y2="322.33" stroke="rgba(17,17,17,0.4)" stroke-width="1.6" stroke-linecap="round"/><line x1="469.15" y1="328.08" x2="470.70" y2="323.32" stroke="rgba(17,17,17,0.4)" stroke-width="1.6" stroke-linecap="round"/><line x1="472.34" y1="329.40" x2="474.61" y2="324.94" stroke="rgba(17,17,17,0.4)" stroke-width="1.6" stroke-linecap="round"/><line x1="475.29" y1="331.20" x2="478.22" y2="327.16" stroke="rgba(17,17,17,0.4)" stroke-width="1.6" stroke-linecap="round"/><line x1="477.91" y1="333.44" x2="481.45" y2="329.91" stroke="rgba(17,17,17,0.4)" stroke-width="3" stroke-linecap="round"/><line x1="480.15" y1="336.07" x2="484.20" y2="333.13" stroke="rgba(17,17,17,0.4)" stroke-width="1.6" stroke-linecap="round"/><line x1="481.96" y1="339.01" x2="486.41" y2="336.74" stroke="rgba(17,17,17,0.4)" stroke-width="1.6" stroke-linecap="round"/><line x1="483.28" y1="342.20" x2="488.03" y2="340.66" stroke="rgba(17,17,17,0.4)" stroke-width="1.6" stroke-linecap="round"/><line x1="484.08" y1="345.56" x2="489.02" y2="344.78" stroke="rgba(17,17,17,0.4)" stroke-width="1.6" stroke-linecap="round"/><line x1="484.35" y1="349.00" x2="489.35" y2="349.00" stroke="rgba(17,17,17,0.4)" stroke-width="3" stroke-linecap="round"/><line x1="484.08" y1="352.44" x2="489.02" y2="353.22" stroke="rgba(17,17,17,0.4)" stroke-width="1.6" stroke-linecap="round"/><line x1="483.28" y1="355.80" x2="488.03" y2="357.34" stroke="rgba(17,17,17,0.4)" stroke-width="1.6" stroke-linecap="round"/><line x1="481.96" y1="358.99" x2="486.41" y2="361.26" stroke="rgba(17,17,17,0.4)" stroke-width="1.6" stroke-linecap="round"/><line x1="480.15" y1="361.93" x2="484.20" y2="364.87" stroke="rgba(17,17,17,0.4)" stroke-width="1.6" stroke-linecap="round"/><line x1="477.91" y1="364.56" x2="481.45" y2="368.09" stroke="rgba(17,17,17,0.4)" stroke-width="3" stroke-linecap="round"/><line x1="475.29" y1="366.80" x2="478.22" y2="370.84" stroke="rgba(17,17,17,0.4)" stroke-width="1.6" stroke-linecap="round"/><line x1="472.34" y1="368.60" x2="474.61" y2="373.06" stroke="rgba(17,17,17,0.4)" stroke-width="1.6" stroke-linecap="round"/><line x1="469.15" y1="369.92" x2="470.70" y2="374.68" stroke="rgba(17,17,17,0.4)" stroke-width="1.6" stroke-linecap="round"/><line x1="465.80" y1="370.73" x2="466.58" y2="375.67" stroke="rgba(17,17,17,0.4)" stroke-width="1.6" stroke-linecap="round"/><line x1="462.35" y1="371.00" x2="462.35" y2="376.00" stroke="rgba(17,17,17,0.4)" stroke-width="3" stroke-linecap="round"/><line x1="458.91" y1="370.73" x2="458.13" y2="375.67" stroke="rgba(17,17,17,0.4)" stroke-width="1.6" stroke-linecap="round"/><line x1="455.56" y1="369.92" x2="454.01" y2="374.68" stroke="rgba(17,17,17,0.4)" stroke-width="1.6" stroke-linecap="round"/><line x1="452.37" y1="368.60" x2="450.10" y2="373.06" stroke="rgba(17,17,17,0.4)" stroke-width="1.6" stroke-linecap="round"/><line x1="449.42" y1="366.80" x2="446.48" y2="370.84" stroke="rgba(17,17,17,0.4)" stroke-width="1.6" stroke-linecap="round"/><line x1="446.80" y1="364.56" x2="443.26" y2="368.09" stroke="rgba(17,17,17,0.4)" stroke-width="3" stroke-linecap="round"/><line x1="444.56" y1="361.93" x2="440.51" y2="364.87" stroke="rgba(17,17,17,0.4)" stroke-width="1.6" stroke-linecap="round"/><line x1="442.75" y1="358.99" x2="438.30" y2="361.26" stroke="rgba(17,17,17,0.4)" stroke-width="1.6" stroke-linecap="round"/><line x1="441.43" y1="355.80" x2="436.68" y2="357.34" stroke="rgba(17,17,17,0.4)" stroke-width="1.6" stroke-linecap="round"/><line x1="440.62" y1="352.44" x2="435.69" y2="353.22" stroke="rgba(17,17,17,0.4)" stroke-width="1.6" stroke-linecap="round"/><line x1="440.35" y1="349.00" x2="435.35" y2="349.00" stroke="rgba(17,17,17,0.4)" stroke-width="3" stroke-linecap="round"/><line x1="440.62" y1="345.56" x2="435.69" y2="344.78" stroke="rgba(17,17,17,0.4)" stroke-width="1.6" stroke-linecap="round"/><line x1="441.43" y1="342.20" x2="436.68" y2="340.66" stroke="rgba(17,17,17,0.4)" stroke-width="1.6" stroke-linecap="round"/><line x1="442.75" y1="339.01" x2="438.30" y2="336.74" stroke="rgba(17,17,17,0.4)" stroke-width="1.6" stroke-linecap="round"/><line x1="444.56" y1="336.07" x2="440.51" y2="333.13" stroke="rgba(17,17,17,0.4)" stroke-width="1.6" stroke-linecap="round"/><line x1="446.80" y1="333.44" x2="443.26" y2="329.91" stroke="rgba(17,17,17,0.4)" stroke-width="3" stroke-linecap="round"/><line x1="449.42" y1="331.20" x2="446.48" y2="327.16" stroke="rgba(17,17,17,0.4)" stroke-width="1.6" stroke-linecap="round"/><line x1="452.37" y1="329.40" x2="450.10" y2="324.94" stroke="rgba(17,17,17,0.4)" stroke-width="1.6" stroke-linecap="round"/><line x1="455.56" y1="328.08" x2="454.01" y2="323.32" stroke="rgba(17,17,17,0.4)" stroke-width="1.6" stroke-linecap="round"/><line x1="458.91" y1="327.27" x2="458.13" y2="322.33" stroke="rgba(17,17,17,0.4)" stroke-width="1.6" stroke-linecap="round"/><line x1="462.35" y1="327.00" x2="462.35" y2="322.00" stroke="rgba(17,17,17,0.4)" stroke-width="3" stroke-linecap="round"/>
    <line x1="462.3538290724796" y1="349" x2="477.25" y2="361.50" stroke="rgba(17,17,17,0.4)" stroke-width="2" stroke-linecap="round"/>
          
    <circle cx="337.6461709275204" cy="349" r="30" fill="#EDEDEA" stroke="rgba(17,17,17,0.12)" stroke-width="1"/>
    <line x1="337.65" y1="327.00" x2="337.65" y2="322.00" stroke="rgba(17,17,17,0.4)" stroke-width="3" stroke-linecap="round"/><line x1="341.09" y1="327.27" x2="341.87" y2="322.33" stroke="rgba(17,17,17,0.4)" stroke-width="1.6" stroke-linecap="round"/><line x1="344.44" y1="328.08" x2="345.99" y2="323.32" stroke="rgba(17,17,17,0.4)" stroke-width="1.6" stroke-linecap="round"/><line x1="347.63" y1="329.40" x2="349.90" y2="324.94" stroke="rgba(17,17,17,0.4)" stroke-width="1.6" stroke-linecap="round"/><line x1="350.58" y1="331.20" x2="353.52" y2="327.16" stroke="rgba(17,17,17,0.4)" stroke-width="1.6" stroke-linecap="round"/><line x1="353.20" y1="333.44" x2="356.74" y2="329.91" stroke="rgba(17,17,17,0.4)" stroke-width="3" stroke-linecap="round"/><line x1="355.44" y1="336.07" x2="359.49" y2="333.13" stroke="rgba(17,17,17,0.4)" stroke-width="1.6" stroke-linecap="round"/><line x1="357.25" y1="339.01" x2="361.70" y2="336.74" stroke="rgba(17,17,17,0.4)" stroke-width="1.6" stroke-linecap="round"/><line x1="358.57" y1="342.20" x2="363.32" y2="340.66" stroke="rgba(17,17,17,0.4)" stroke-width="1.6" stroke-linecap="round"/><line x1="359.38" y1="345.56" x2="364.31" y2="344.78" stroke="rgba(17,17,17,0.4)" stroke-width="1.6" stroke-linecap="round"/><line x1="359.65" y1="349.00" x2="364.65" y2="349.00" stroke="rgba(17,17,17,0.4)" stroke-width="3" stroke-linecap="round"/><line x1="359.38" y1="352.44" x2="364.31" y2="353.22" stroke="rgba(17,17,17,0.4)" stroke-width="1.6" stroke-linecap="round"/><line x1="358.57" y1="355.80" x2="363.32" y2="357.34" stroke="rgba(17,17,17,0.4)" stroke-width="1.6" stroke-linecap="round"/><line x1="357.25" y1="358.99" x2="361.70" y2="361.26" stroke="rgba(17,17,17,0.4)" stroke-width="1.6" stroke-linecap="round"/><line x1="355.44" y1="361.93" x2="359.49" y2="364.87" stroke="rgba(17,17,17,0.4)" stroke-width="1.6" stroke-linecap="round"/><line x1="353.20" y1="364.56" x2="356.74" y2="368.09" stroke="rgba(17,17,17,0.4)" stroke-width="3" stroke-linecap="round"/><line x1="350.58" y1="366.80" x2="353.52" y2="370.84" stroke="rgba(17,17,17,0.4)" stroke-width="1.6" stroke-linecap="round"/><line x1="347.63" y1="368.60" x2="349.90" y2="373.06" stroke="rgba(17,17,17,0.4)" stroke-width="1.6" stroke-linecap="round"/><line x1="344.44" y1="369.92" x2="345.99" y2="374.68" stroke="rgba(17,17,17,0.4)" stroke-width="1.6" stroke-linecap="round"/><line x1="341.09" y1="370.73" x2="341.87" y2="375.67" stroke="rgba(17,17,17,0.4)" stroke-width="1.6" stroke-linecap="round"/><line x1="337.65" y1="371.00" x2="337.65" y2="376.00" stroke="rgba(17,17,17,0.4)" stroke-width="3" stroke-linecap="round"/><line x1="334.20" y1="370.73" x2="333.42" y2="375.67" stroke="rgba(17,17,17,0.4)" stroke-width="1.6" stroke-linecap="round"/><line x1="330.85" y1="369.92" x2="329.30" y2="374.68" stroke="rgba(17,17,17,0.4)" stroke-width="1.6" stroke-linecap="round"/><line x1="327.66" y1="368.60" x2="325.39" y2="373.06" stroke="rgba(17,17,17,0.4)" stroke-width="1.6" stroke-linecap="round"/><line x1="324.71" y1="366.80" x2="321.78" y2="370.84" stroke="rgba(17,17,17,0.4)" stroke-width="1.6" stroke-linecap="round"/><line x1="322.09" y1="364.56" x2="318.55" y2="368.09" stroke="rgba(17,17,17,0.4)" stroke-width="3" stroke-linecap="round"/><line x1="319.85" y1="361.93" x2="315.80" y2="364.87" stroke="rgba(17,17,17,0.4)" stroke-width="1.6" stroke-linecap="round"/><line x1="318.04" y1="358.99" x2="313.59" y2="361.26" stroke="rgba(17,17,17,0.4)" stroke-width="1.6" stroke-linecap="round"/><line x1="316.72" y1="355.80" x2="311.97" y2="357.34" stroke="rgba(17,17,17,0.4)" stroke-width="1.6" stroke-linecap="round"/><line x1="315.92" y1="352.44" x2="310.98" y2="353.22" stroke="rgba(17,17,17,0.4)" stroke-width="1.6" stroke-linecap="round"/><line x1="315.65" y1="349.00" x2="310.65" y2="349.00" stroke="rgba(17,17,17,0.4)" stroke-width="3" stroke-linecap="round"/><line x1="315.92" y1="345.56" x2="310.98" y2="344.78" stroke="rgba(17,17,17,0.4)" stroke-width="1.6" stroke-linecap="round"/><line x1="316.72" y1="342.20" x2="311.97" y2="340.66" stroke="rgba(17,17,17,0.4)" stroke-width="1.6" stroke-linecap="round"/><line x1="318.04" y1="339.01" x2="313.59" y2="336.74" stroke="rgba(17,17,17,0.4)" stroke-width="1.6" stroke-linecap="round"/><line x1="319.85" y1="336.07" x2="315.80" y2="333.13" stroke="rgba(17,17,17,0.4)" stroke-width="1.6" stroke-linecap="round"/><line x1="322.09" y1="333.44" x2="318.55" y2="329.91" stroke="rgba(17,17,17,0.4)" stroke-width="3" stroke-linecap="round"/><line x1="324.71" y1="331.20" x2="321.78" y2="327.16" stroke="rgba(17,17,17,0.4)" stroke-width="1.6" stroke-linecap="round"/><line x1="327.66" y1="329.40" x2="325.39" y2="324.94" stroke="rgba(17,17,17,0.4)" stroke-width="1.6" stroke-linecap="round"/><line x1="330.85" y1="328.08" x2="329.30" y2="323.32" stroke="rgba(17,17,17,0.4)" stroke-width="1.6" stroke-linecap="round"/><line x1="334.20" y1="327.27" x2="333.42" y2="322.33" stroke="rgba(17,17,17,0.4)" stroke-width="1.6" stroke-linecap="round"/><line x1="337.65" y1="327.00" x2="337.65" y2="322.00" stroke="rgba(17,17,17,0.4)" stroke-width="3" stroke-linecap="round"/>
    <line x1="337.6461709275204" y1="349" x2="352.54" y2="361.50" stroke="rgba(17,17,17,0.4)" stroke-width="2" stroke-linecap="round"/>
          
    <circle cx="400" cy="457" r="30" fill="#E4E6EA" stroke="rgba(17,17,17,0.12)" stroke-width="1"/>
    <line x1="400.00" y1="435.00" x2="400.00" y2="430.00" stroke="rgba(17,17,17,0.4)" stroke-width="3" stroke-linecap="round"/><line x1="403.44" y1="435.27" x2="404.22" y2="430.33" stroke="rgba(17,17,17,0.4)" stroke-width="1.6" stroke-linecap="round"/><line x1="406.80" y1="436.08" x2="408.34" y2="431.32" stroke="rgba(17,17,17,0.4)" stroke-width="1.6" stroke-linecap="round"/><line x1="409.99" y1="437.40" x2="412.26" y2="432.94" stroke="rgba(17,17,17,0.4)" stroke-width="1.6" stroke-linecap="round"/><line x1="412.93" y1="439.20" x2="415.87" y2="435.16" stroke="rgba(17,17,17,0.4)" stroke-width="1.6" stroke-linecap="round"/><line x1="415.56" y1="441.44" x2="419.09" y2="437.91" stroke="rgba(17,17,17,0.4)" stroke-width="3" stroke-linecap="round"/><line x1="417.80" y1="444.07" x2="421.84" y2="441.13" stroke="rgba(17,17,17,0.4)" stroke-width="1.6" stroke-linecap="round"/><line x1="419.60" y1="447.01" x2="424.06" y2="444.74" stroke="rgba(17,17,17,0.4)" stroke-width="1.6" stroke-linecap="round"/><line x1="420.92" y1="450.20" x2="425.68" y2="448.66" stroke="rgba(17,17,17,0.4)" stroke-width="1.6" stroke-linecap="round"/><line x1="421.73" y1="453.56" x2="426.67" y2="452.78" stroke="rgba(17,17,17,0.4)" stroke-width="1.6" stroke-linecap="round"/><line x1="422.00" y1="457.00" x2="427.00" y2="457.00" stroke="rgba(17,17,17,0.4)" stroke-width="3" stroke-linecap="round"/><line x1="421.73" y1="460.44" x2="426.67" y2="461.22" stroke="rgba(17,17,17,0.4)" stroke-width="1.6" stroke-linecap="round"/><line x1="420.92" y1="463.80" x2="425.68" y2="465.34" stroke="rgba(17,17,17,0.4)" stroke-width="1.6" stroke-linecap="round"/><line x1="419.60" y1="466.99" x2="424.06" y2="469.26" stroke="rgba(17,17,17,0.4)" stroke-width="1.6" stroke-linecap="round"/><line x1="417.80" y1="469.93" x2="421.84" y2="472.87" stroke="rgba(17,17,17,0.4)" stroke-width="1.6" stroke-linecap="round"/><line x1="415.56" y1="472.56" x2="419.09" y2="476.09" stroke="rgba(17,17,17,0.4)" stroke-width="3" stroke-linecap="round"/><line x1="412.93" y1="474.80" x2="415.87" y2="478.84" stroke="rgba(17,17,17,0.4)" stroke-width="1.6" stroke-linecap="round"/><line x1="409.99" y1="476.60" x2="412.26" y2="481.06" stroke="rgba(17,17,17,0.4)" stroke-width="1.6" stroke-linecap="round"/><line x1="406.80" y1="477.92" x2="408.34" y2="482.68" stroke="rgba(17,17,17,0.4)" stroke-width="1.6" stroke-linecap="round"/><line x1="403.44" y1="478.73" x2="404.22" y2="483.67" stroke="rgba(17,17,17,0.4)" stroke-width="1.6" stroke-linecap="round"/><line x1="400.00" y1="479.00" x2="400.00" y2="484.00" stroke="rgba(17,17,17,0.4)" stroke-width="3" stroke-linecap="round"/><line x1="396.56" y1="478.73" x2="395.78" y2="483.67" stroke="rgba(17,17,17,0.4)" stroke-width="1.6" stroke-linecap="round"/><line x1="393.20" y1="477.92" x2="391.66" y2="482.68" stroke="rgba(17,17,17,0.4)" stroke-width="1.6" stroke-linecap="round"/><line x1="390.01" y1="476.60" x2="387.74" y2="481.06" stroke="rgba(17,17,17,0.4)" stroke-width="1.6" stroke-linecap="round"/><line x1="387.07" y1="474.80" x2="384.13" y2="478.84" stroke="rgba(17,17,17,0.4)" stroke-width="1.6" stroke-linecap="round"/><line x1="384.44" y1="472.56" x2="380.91" y2="476.09" stroke="rgba(17,17,17,0.4)" stroke-width="3" stroke-linecap="round"/><line x1="382.20" y1="469.93" x2="378.16" y2="472.87" stroke="rgba(17,17,17,0.4)" stroke-width="1.6" stroke-linecap="round"/><line x1="380.40" y1="466.99" x2="375.94" y2="469.26" stroke="rgba(17,17,17,0.4)" stroke-width="1.6" stroke-linecap="round"/><line x1="379.08" y1="463.80" x2="374.32" y2="465.34" stroke="rgba(17,17,17,0.4)" stroke-width="1.6" stroke-linecap="round"/><line x1="378.27" y1="460.44" x2="373.33" y2="461.22" stroke="rgba(17,17,17,0.4)" stroke-width="1.6" stroke-linecap="round"/><line x1="378.00" y1="457.00" x2="373.00" y2="457.00" stroke="rgba(17,17,17,0.4)" stroke-width="3" stroke-linecap="round"/><line x1="378.27" y1="453.56" x2="373.33" y2="452.78" stroke="rgba(17,17,17,0.4)" stroke-width="1.6" stroke-linecap="round"/><line x1="379.08" y1="450.20" x2="374.32" y2="448.66" stroke="rgba(17,17,17,0.4)" stroke-width="1.6" stroke-linecap="round"/><line x1="380.40" y1="447.01" x2="375.94" y2="444.74" stroke="rgba(17,17,17,0.4)" stroke-width="1.6" stroke-linecap="round"/><line x1="382.20" y1="444.07" x2="378.16" y2="441.13" stroke="rgba(17,17,17,0.4)" stroke-width="1.6" stroke-linecap="round"/><line x1="384.44" y1="441.44" x2="380.91" y2="437.91" stroke="rgba(17,17,17,0.4)" stroke-width="3" stroke-linecap="round"/><line x1="387.07" y1="439.20" x2="384.13" y2="435.16" stroke="rgba(17,17,17,0.4)" stroke-width="1.6" stroke-linecap="round"/><line x1="390.01" y1="437.40" x2="387.74" y2="432.94" stroke="rgba(17,17,17,0.4)" stroke-width="1.6" stroke-linecap="round"/><line x1="393.20" y1="436.08" x2="391.66" y2="431.32" stroke="rgba(17,17,17,0.4)" stroke-width="1.6" stroke-linecap="round"/><line x1="396.56" y1="435.27" x2="395.78" y2="430.33" stroke="rgba(17,17,17,0.4)" stroke-width="1.6" stroke-linecap="round"/><line x1="400.00" y1="435.00" x2="400.00" y2="430.00" stroke="rgba(17,17,17,0.4)" stroke-width="3" stroke-linecap="round"/>
    <line x1="400" y1="457" x2="414.89" y2="469.50" stroke="rgba(17,17,17,0.4)" stroke-width="2" stroke-linecap="round"/>
          <circle cx="376" cy="403" r="2" fill="rgba(17,17,17,0.35)"/>
          <circle cx="424" cy="403" r="2" fill="rgba(17,17,17,0.35)"/>
        
        <text x="400" y="307" text-anchor="middle" font-family="Georgia, 'Times New Roman', serif" font-size="12" letter-spacing="3.2" fill="rgba(255,255,255,0.88)" font-weight="600">FOSSIL</text>
        <text x="400" y="484" text-anchor="middle" font-family="Verdana, sans-serif" font-size="9" letter-spacing="2" fill="rgba(255,255,255,0.55)">CHRONOGRAPH</text>
        
    <polygon points="394.5,385 400,310 405.5,385 400.5,398.5 399.5,398.5" fill="#202020" transform="rotate(214.75 400 385)"/>
    <polygon points="396.75,385 400,277 403.25,385 400.29545454545456,398.5 399.70454545454544,398.5" fill="#202020" transform="rotate(-33 400 385)"/>
    <line x1="400" y1="385" x2="521.35" y2="473.17" stroke="#C6A15B" stroke-width="2.4" stroke-linecap="round"/>
    <circle cx="400" cy="385" r="6.5" fill="#222"/>
    <circle cx="400" cy="385" r="2.6" fill="#C6A15B"/>
        <circle cx="400" cy="385" r="160" fill="none" stroke="rgba(244,244,242,0.35)" stroke-width="1.5" stroke-dasharray="6 14"/>
      </g>
      <rect x="558" y="365" width="15" height="40" rx="5" fill="#888F9B"/>
    </g>
  
    <ellipse cx="400" cy="720" rx="150" ry="16" fill="rgba(17,17,17,0.14)"/>
  
</svg>