<svg xmlns="http://www.w3.org/2000/svg" width="900" height="1100" viewBox="0 0 900 1100" role="img" aria-label="Casual">
    <defs>
      <radialGradient id="dialgrad" cx="0.42" cy="0.38" r="0.9">
        <stop offset="0" stop-color="#ffffff" stop-opacity="0.2"/><stop offset="1" stop-color="#000000" stop-opacity="0.22"/>
      </radialGradient>
      <linearGradient id="catbg" x1="0" y1="0" x2="1" y2="1">
        <stop offset="0" stop-color="#1A1C22"/><stop offset="1" stop-color="#0D0E12"/>
      </linearGradient>
    </defs>
    <rect width="900" height="1100" fill="url(#catbg)"/>
    <circle cx="450" cy="400" r="380" fill="rgba(140,92,55,0.1)"/>
    <circle cx="450" cy="400" r="300" fill="none" stroke="rgba(140,92,55,0.35)" stroke-width="1.5" stroke-dasharray="3 9"/>
    <line x1="120" y1="180" x2="780" y2="180" stroke="rgba(140,92,55,0.5)" stroke-width="1"/>
    <text x="450" y="150" text-anchor="middle" font-family="Verdana, sans-serif" font-size="18" letter-spacing="8" fill="#F7F5F0">TIME CART</text>
    <g>
      <circle cx="450" cy="660" r="192" fill="rgba(247,245,240,0.04)" stroke="rgba(247,245,240,0.2)" stroke-width="2"/>
      <circle cx="450" cy="660" r="180" fill="url(#dialgrad)"/>
      <line x1="450.0" y1="505.2" x2="450.0" y2="480.0" stroke="#8C5C37" stroke-width="4" stroke-linecap="round"/><line x1="467.5" y1="493.5" x2="468.8" y2="481.0" stroke="rgba(247,245,240,0.35)" stroke-width="1.5" stroke-linecap="round"/><line x1="484.8" y1="496.3" x2="487.4" y2="483.9" stroke="rgba(247,245,240,0.35)" stroke-width="1.5" stroke-linecap="round"/><line x1="501.7" y1="500.8" x2="505.6" y2="488.8" stroke="rgba(247,245,240,0.35)" stroke-width="1.5" stroke-linecap="round"/><line x1="518.1" y1="507.1" x2="523.2" y2="495.6" stroke="rgba(247,245,240,0.35)" stroke-width="1.5" stroke-linecap="round"/><line x1="527.4" y1="525.9" x2="540.0" y2="504.1" stroke="#8C5C37" stroke-width="4" stroke-linecap="round"/><line x1="548.4" y1="524.6" x2="555.8" y2="514.4" stroke="rgba(247,245,240,0.35)" stroke-width="1.5" stroke-linecap="round"/><line x1="562.0" y1="535.6" x2="570.4" y2="526.2" stroke="rgba(247,245,240,0.35)" stroke-width="1.5" stroke-linecap="round"/><line x1="574.4" y1="548.0" x2="583.8" y2="539.6" stroke="rgba(247,245,240,0.35)" stroke-width="1.5" stroke-linecap="round"/><line x1="585.4" y1="561.6" x2="595.6" y2="554.2" stroke="rgba(247,245,240,0.35)" stroke-width="1.5" stroke-linecap="round"/><line x1="584.1" y1="582.6" x2="605.9" y2="570.0" stroke="#8C5C37" stroke-width="4" stroke-linecap="round"/><line x1="602.9" y1="591.9" x2="614.4" y2="586.8" stroke="rgba(247,245,240,0.35)" stroke-width="1.5" stroke-linecap="round"/><line x1="609.2" y1="608.3" x2="621.2" y2="604.4" stroke="rgba(247,245,240,0.35)" stroke-width="1.5" stroke-linecap="round"/><line x1="613.7" y1="625.2" x2="626.1" y2="622.6" stroke="rgba(247,245,240,0.35)" stroke-width="1.5" stroke-linecap="round"/><line x1="616.5" y1="642.5" x2="629.0" y2="641.2" stroke="rgba(247,245,240,0.35)" stroke-width="1.5" stroke-linecap="round"/><line x1="604.8" y1="660.0" x2="630.0" y2="660.0" stroke="#8C5C37" stroke-width="4" stroke-linecap="round"/><line x1="616.5" y1="677.5" x2="629.0" y2="678.8" stroke="rgba(247,245,240,0.35)" stroke-width="1.5" stroke-linecap="round"/><line x1="613.7" y1="694.8" x2="626.1" y2="697.4" stroke="rgba(247,245,240,0.35)" stroke-width="1.5" stroke-linecap="round"/><line x1="609.2" y1="711.7" x2="621.2" y2="715.6" stroke="rgba(247,245,240,0.35)" stroke-width="1.5" stroke-linecap="round"/><line x1="602.9" y1="728.1" x2="614.4" y2="733.2" stroke="rgba(247,245,240,0.35)" stroke-width="1.5" stroke-linecap="round"/><line x1="584.1" y1="737.4" x2="605.9" y2="750.0" stroke="#8C5C37" stroke-width="4" stroke-linecap="round"/><line x1="585.4" y1="758.4" x2="595.6" y2="765.8" stroke="rgba(247,245,240,0.35)" stroke-width="1.5" stroke-linecap="round"/><line x1="574.4" y1="772.0" x2="583.8" y2="780.4" stroke="rgba(247,245,240,0.35)" stroke-width="1.5" stroke-linecap="round"/><line x1="562.0" y1="784.4" x2="570.4" y2="793.8" stroke="rgba(247,245,240,0.35)" stroke-width="1.5" stroke-linecap="round"/><line x1="548.4" y1="795.4" x2="555.8" y2="805.6" stroke="rgba(247,245,240,0.35)" stroke-width="1.5" stroke-linecap="round"/><line x1="527.4" y1="794.1" x2="540.0" y2="815.9" stroke="#8C5C37" stroke-width="4" stroke-linecap="round"/><line x1="518.1" y1="812.9" x2="523.2" y2="824.4" stroke="rgba(247,245,240,0.35)" stroke-width="1.5" stroke-linecap="round"/><line x1="501.7" y1="819.2" x2="505.6" y2="831.2" stroke="rgba(247,245,240,0.35)" stroke-width="1.5" stroke-linecap="round"/><line x1="484.8" y1="823.7" x2="487.4" y2="836.1" stroke="rgba(247,245,240,0.35)" stroke-width="1.5" stroke-linecap="round"/><line x1="467.5" y1="826.5" x2="468.8" y2="839.0" stroke="rgba(247,245,240,0.35)" stroke-width="1.5" stroke-linecap="round"/><line x1="450.0" y1="814.8" x2="450.0" y2="840.0" stroke="#8C5C37" stroke-width="4" stroke-linecap="round"/><line x1="432.5" y1="826.5" x2="431.2" y2="839.0" stroke="rgba(247,245,240,0.35)" stroke-width="1.5" stroke-linecap="round"/><line x1="415.2" y1="823.7" x2="412.6" y2="836.1" stroke="rgba(247,245,240,0.35)" stroke-width="1.5" stroke-linecap="round"/><line x1="398.3" y1="819.2" x2="394.4" y2="831.2" stroke="rgba(247,245,240,0.35)" stroke-width="1.5" stroke-linecap="round"/><line x1="381.9" y1="812.9" x2="376.8" y2="824.4" stroke="rgba(247,245,240,0.35)" stroke-width="1.5" stroke-linecap="round"/><line x1="372.6" y1="794.1" x2="360.0" y2="815.9" stroke="#8C5C37" stroke-width="4" stroke-linecap="round"/><line x1="351.6" y1="795.4" x2="344.2" y2="805.6" stroke="rgba(247,245,240,0.35)" stroke-width="1.5" stroke-linecap="round"/><line x1="338.0" y1="784.4" x2="329.6" y2="793.8" stroke="rgba(247,245,240,0.35)" stroke-width="1.5" stroke-linecap="round"/><line x1="325.6" y1="772.0" x2="316.2" y2="780.4" stroke="rgba(247,245,240,0.35)" stroke-width="1.5" stroke-linecap="round"/><line x1="314.6" y1="758.4" x2="304.4" y2="765.8" stroke="rgba(247,245,240,0.35)" stroke-width="1.5" stroke-linecap="round"/><line x1="315.9" y1="737.4" x2="294.1" y2="750.0" stroke="#8C5C37" stroke-width="4" stroke-linecap="round"/><line x1="297.1" y1="728.1" x2="285.6" y2="733.2" stroke="rgba(247,245,240,0.35)" stroke-width="1.5" stroke-linecap="round"/><line x1="290.8" y1="711.7" x2="278.8" y2="715.6" stroke="rgba(247,245,240,0.35)" stroke-width="1.5" stroke-linecap="round"/><line x1="286.3" y1="694.8" x2="273.9" y2="697.4" stroke="rgba(247,245,240,0.35)" stroke-width="1.5" stroke-linecap="round"/><line x1="283.5" y1="677.5" x2="271.0" y2="678.8" stroke="rgba(247,245,240,0.35)" stroke-width="1.5" stroke-linecap="round"/><line x1="295.2" y1="660.0" x2="270.0" y2="660.0" stroke="#8C5C37" stroke-width="4" stroke-linecap="round"/><line x1="283.5" y1="642.5" x2="271.0" y2="641.2" stroke="rgba(247,245,240,0.35)" stroke-width="1.5" stroke-linecap="round"/><line x1="286.3" y1="625.2" x2="273.9" y2="622.6" stroke="rgba(247,245,240,0.35)" stroke-width="1.5" stroke-linecap="round"/><line x1="290.8" y1="608.3" x2="278.8" y2="604.4" stroke="rgba(247,245,240,0.35)" stroke-width="1.5" stroke-linecap="round"/><line x1="297.1" y1="591.9" x2="285.6" y2="586.8" stroke="rgba(247,245,240,0.35)" stroke-width="1.5" stroke-linecap="round"/><line x1="315.9" y1="582.6" x2="294.1" y2="570.0" stroke="#8C5C37" stroke-width="4" stroke-linecap="round"/><line x1="314.6" y1="561.6" x2="304.4" y2="554.2" stroke="rgba(247,245,240,0.35)" stroke-width="1.5" stroke-linecap="round"/><line x1="325.6" y1="548.0" x2="316.2" y2="539.6" stroke="rgba(247,245,240,0.35)" stroke-width="1.5" stroke-linecap="round"/><line x1="338.0" y1="535.6" x2="329.6" y2="526.2" stroke="rgba(247,245,240,0.35)" stroke-width="1.5" stroke-linecap="round"/><line x1="351.6" y1="524.6" x2="344.2" y2="514.4" stroke="rgba(247,245,240,0.35)" stroke-width="1.5" stroke-linecap="round"/><line x1="372.6" y1="525.9" x2="360.0" y2="504.1" stroke="#8C5C37" stroke-width="4" stroke-linecap="round"/><line x1="381.9" y1="507.1" x2="376.8" y2="495.6" stroke="rgba(247,245,240,0.35)" stroke-width="1.5" stroke-linecap="round"/><line x1="398.3" y1="500.8" x2="394.4" y2="488.8" stroke="rgba(247,245,240,0.35)" stroke-width="1.5" stroke-linecap="round"/><line x1="415.2" y1="496.3" x2="412.6" y2="483.9" stroke="rgba(247,245,240,0.35)" stroke-width="1.5" stroke-linecap="round"/><line x1="432.5" y1="493.5" x2="431.2" y2="481.0" stroke="rgba(247,245,240,0.35)" stroke-width="1.5" stroke-linecap="round"/>
      <text x="450" y="600" text-anchor="middle" font-family="Georgia, serif" font-size="24" letter-spacing="6" fill="#F7F5F0">T C</text>
      <polygon points="442,660 450,570 458,660" fill="#F7F5F0" transform="rotate(214 450 660)"/>
      <polygon points="446,660 450,526.8 454,660" fill="#F7F5F0" transform="rotate(-33 450 660)"/>
      <line x1="450" y1="660" x2="450" y2="519.6" stroke="#8C5C37" stroke-width="3" stroke-linecap="round" transform="rotate(126 450 660)"/>
      <circle cx="450" cy="660" r="7" fill="#8C5C37"/>
    </g>
    <text x="450" y="930" text-anchor="middle" font-family="Georgia, 'Times New Roman', serif" font-size="72" fill="#F7F5F0">Casual</text>
    <text x="450" y="980" text-anchor="middle" font-family="Verdana, sans-serif" font-size="13" letter-spacing="6" fill="rgba(247,245,240,0.6)">WHERE TIME MEETS STYLE</text>
  </svg>